<?xml version="1.0" encoding="utf-8"?>
<!-- Generator: Adobe Illustrator 18.0.0, SVG Export Plug-In . SVG Version: 6.00 Build 0)  -->
<!DOCTYPE svg PUBLIC "-//W3C//DTD SVG 1.1//EN" "http://www.w3.org/Graphics/SVG/1.1/DTD/svg11.dtd">
<svg version="1.1" id="Layer_1" xmlns="http://www.w3.org/2000/svg" xmlns:xlink="http://www.w3.org/1999/xlink" x="0px" y="0px"
	 viewBox="0 0 612.4 212.8" enable-background="new 0 0 612.4 212.8" xml:space="preserve">
<g>
	<path fill="#B6B6B6" d="M0,212.8L50.2,0h17.8L21,196.8h104.8l-3.4,16H0z"/>
	<path fill="#B6B6B6" d="M112.4,164.7c-12.1,0-21.6-3.6-28.5-10.7c-6.9-7.1-10.4-17-10.4-29.6c0-12.2,2.4-23.9,7.2-35.1
		S92,69.5,100.1,63.1c8.1-6.3,17.2-9.5,27.1-9.5c10.2,0,17.8,2.2,22.9,6.6c5.1,4.4,7.7,10.5,7.7,18.4c0,11.8-5.5,21.1-16.4,27.8
		c-10.9,6.7-26.4,10-46.3,10h-3.3l-0.4,7.4c0,8.2,2,14.6,5.9,19.3c3.9,4.7,10,7,18.2,7c5,0,9.8-0.7,14.4-2.1
		c4.6-1.4,9.5-3.5,14.8-6.1v15c-6.4,3-12.1,5-16.9,6.1C123.1,164.2,117.9,164.7,112.4,164.7z M126.2,68.1c-6.7,0-13,3.1-18.9,9.4
		C101.3,83.9,97,92,94.4,102.1h1.5c14.2,0,25.2-1.9,33-5.7c7.8-3.8,11.7-9.3,11.7-16.5c0-3.5-1.2-6.3-3.5-8.5
		C134.7,69.3,131.1,68.1,126.2,68.1z"/>
	<path fill="#B6B6B6" d="M189.6,212.8c-39.8,0-30.6,0-40.8,0l3.6-16.1c29.2,0,31.1-0.1,36-0.1c8.7,0,16.2-2.5,21.3-6.7
		c5.1-4.2,8.8-10.8,10.8-19.7l5-20.5l1.9-6.7h-0.8c-5.9,7.6-11.8,13.2-17.6,16.6c-5.8,3.5-11.8,5.2-17.8,5.2c-9,0-16.2-3.2-21.4-9.6
		c-5.2-6.4-7.8-15.4-7.8-27c0-14,2.4-26.8,7.1-38.4c4.8-11.6,11.1-20.6,19-26.8s16.7-9.4,26.5-9.4c12.4,0,21.5,6.2,27.1,18.6h0.9
		l6.5-16.6h13.4l-24.3,113.4c-3.1,14.3-7.5,25.9-15.4,32.7C215,208.4,203.2,212.8,189.6,212.8z M197,150.2c5.9,0,11.9-3,18.1-8.9
		c6.2-5.9,11.1-13.6,14.9-23c3.7-9.4,5.6-18.8,5.6-28.3c0-14.5-6.5-21.7-19.6-21.7c-6.6,0-12.6,2.8-18.2,8.3
		c-5.5,5.5-9.9,13-13,22.4c-3.2,9.4-4.7,19.3-4.7,29.6C180,143,185.7,150.2,197,150.2z"/>
	<path fill="#B6B6B6" d="M295.4,164.7c-8.9,0-16-3.2-21.2-9.6c-5.2-6.4-7.8-15.4-7.8-27c0-13.3,2.3-25.8,6.9-37.4
		c4.6-11.6,10.9-20.7,19-27.3c8.1-6.6,17-10,26.8-10c6.1,0,11.4,1.6,16,4.8c4.6,3.2,8.3,7.8,11,13.8h1.1l6.3-16.6h13.4L344,162.8
		h-14l2.5-19.8h-0.8C320.6,157.5,308.4,164.7,295.4,164.7z M301.3,150.2c6.1,0,12.3-2.9,18.4-8.8s11.1-13.5,14.8-22.9
		c3.7-9.4,5.6-19,5.6-28.8c0-6.4-1.8-11.5-5.3-15.5c-3.5-3.9-8.2-5.9-14-5.9c-6.6,0-12.7,2.8-18.3,8.3c-5.6,5.5-10,12.9-13.2,22.2
		c-3.2,9.3-4.8,19.2-4.8,29.8c0,7.2,1.5,12.6,4.4,16.2C291.8,148.4,295.9,150.2,301.3,150.2z"/>
	<path fill="#B6B6B6" d="M382,162.8h-17.7l32.4-162h17.6L382,162.8z"/>
	<path fill="#B6B6B6" d="M422.4,162.8h-17.7l22.9-107.2h17.6L422.4,162.8z M432.2,28.4c0-3.7,1.1-6.8,3.3-9.2c2.2-2.4,5-3.6,8.5-3.6
		c6.1,0,9.2,3,9.2,9c0,3.9-1.1,7.1-3.4,9.5c-2.3,2.4-4.9,3.7-8,3.7c-2.8,0-5.1-0.8-6.9-2.4C433.1,33.7,432.2,31.4,432.2,28.4z"/>
	<path fill="#B6B6B6" d="M479,150.4c4,0,8.8-0.9,14.2-2.6v13.5c-1.8,0.9-4.4,1.7-7.9,2.4c-3.4,0.7-6.4,1.1-8.9,1.1
		c-8.3,0-14.7-2-19-5.9c-4.4-3.9-6.5-9.7-6.5-17.5c0-4.2,0.6-8.9,1.8-14.3l12.2-58.2h-16.6l1.6-7.9l18.1-7.6l12.4-22.3h10.4
		l-5.4,24.4h27l-2.7,13.4h-26.9l-12.4,58.5c-1.2,5.3-1.8,9.2-1.8,11.9c0,3.1,0.8,5.7,2.4,7.9C472.4,149.3,475.1,150.4,479,150.4z"/>
	<path fill="#B6B6B6" d="M518.9,55.5h17.7l6.9,53c0.7,4.9,1.3,11.2,1.9,19c0.5,7.8,0.8,14.7,0.8,20.8h0.6c1.7-4.3,4.2-10.1,7.6-17.5
		c3.4-7.4,6.1-12.9,8-16.6l31.2-58.8h18.8l-68.1,125.2c-5.9,11.1-10.8,20.8-17,25.3c-6.1,4.5-12.6,6.7-26,6.7
		c-5.1,0-232.9,0-261.9,0l4-16.2c26.2,0,255.4-0.3,259.9-0.3c5.3,0,10.9-0.7,14.8-4c3.8-3.4,6.5-9.2,10-15.6l6.9-12.4L518.9,55.5z"
		/>
	<path fill="none" d="M248.9,210.8"/>
	<path fill="none" d="M183.6,210.8"/>
</g>
</svg>
